<svg xmlns="http://www.w3.org/2000/svg" viewBox="0 0 427 428" width="427" height="428">
	<style>
		tspan { white-space:pre }
		.shp0 { fill: #000000 } 
		.shp1 { fill: #ffffff } 
	</style>
	<path id="Layer" class="shp0" d="M272.4 154.7C266.88 154.7 262.4 159.18 262.4 164.7L262.4 353.7C262.4 359.22 266.88 363.7 272.4 363.7C277.92 363.7 282.4 359.22 282.4 353.7L282.4 164.7C282.4 159.18 277.92 154.7 272.4 154.7Z" />
	<path id="Color Fill 2" class="shp1" d="M272.4 154.7C266.88 154.7 262.4 159.18 262.4 164.7L262.4 353.7C262.4 359.22 266.88 363.7 272.4 363.7C277.92 363.7 282.4 359.22 282.4 353.7L282.4 164.7C282.4 159.18 277.92 154.7 272.4 154.7Z" />
	<path id="Layer" class="shp0" d="M154.4 154.7C148.88 154.7 144.4 159.18 144.4 164.7L144.4 353.7C144.4 359.22 148.88 363.7 154.4 363.7C159.92 363.7 164.4 359.22 164.4 353.7L164.4 164.7C164.4 159.18 159.92 154.7 154.4 154.7Z" />
	<path id="Color Fill 2" class="shp1" d="M154.4 154.7C148.88 154.7 144.4 159.18 144.4 164.7L144.4 353.7C144.4 359.22 148.88 363.7 154.4 363.7C159.92 363.7 164.4 359.22 164.4 353.7L164.4 164.7C164.4 159.18 159.92 154.7 154.4 154.7Z" />
	<path id="Layer" fill-rule="evenodd" class="shp0" d="M68.4 127.12C49.86 122.2 37.84 104.29 40.32 85.26C42.8 66.23 59.01 52 78.2 52L129.4 52L129.4 39.5C129.34 28.99 133.5 18.89 140.94 11.47C148.38 4.05 158.49 -0.09 169 0L257.8 0C268.31 -0.09 278.42 4.05 285.86 11.47C293.3 18.89 297.46 28.99 297.4 39.5L297.4 52L348.6 52C367.79 52 383.99 66.23 386.48 85.26C388.96 104.29 376.94 122.2 358.4 127.12L358.4 373.5C358.4 388.06 353.06 401.74 343.73 411.55C334.45 421.39 321.53 426.98 308 427L118.8 427C105.27 426.98 92.35 421.39 83.07 411.55C73.74 401.74 68.4 388.06 68.4 373.5L68.4 127.12ZM338.4 373.5L338.4 128L88.4 128L88.4 373.5C88.4 392.31 101.7 407 118.8 407L308 407C325.1 407 338.4 392.31 338.4 373.5ZM149.4 52L277.4 52L277.4 39.5C277.46 34.29 275.42 29.28 271.72 25.61C268.03 21.93 263.01 19.91 257.8 20L169 20C163.79 19.91 158.77 21.93 155.07 25.61C151.38 29.28 149.33 34.29 149.4 39.5L149.4 52ZM78.2 72C68.26 72 60.2 80.06 60.2 90C60.2 99.94 68.26 108 78.2 108L348.6 108C358.54 108 366.6 99.94 366.6 90C366.6 80.06 358.54 72 348.6 72L78.2 72Z" />
	<path id="Color Fill 2" fill-rule="evenodd" class="shp1" d="M68.4 127.12C49.86 122.2 37.84 104.29 40.32 85.26C42.8 66.23 59.01 52 78.2 52L129.4 52L129.4 39.5C129.34 28.99 133.5 18.89 140.94 11.47C148.38 4.05 158.49 -0.09 169 0L257.8 0C268.31 -0.09 278.42 4.05 285.86 11.47C293.3 18.89 297.46 28.99 297.4 39.5L297.4 52L348.6 52C367.79 52 383.99 66.23 386.48 85.26C388.96 104.29 376.94 122.2 358.4 127.12L358.4 373.5C358.4 388.06 353.06 401.74 343.73 411.55C334.45 421.39 321.53 426.98 308 427L118.8 427C105.27 426.98 92.35 421.39 83.07 411.55C73.74 401.74 68.4 388.06 68.4 373.5L68.4 127.12ZM338.4 373.5L338.4 128L88.4 128L88.4 373.5C88.4 392.31 101.7 407 118.8 407L308 407C325.1 407 338.4 392.31 338.4 373.5ZM149.4 52L277.4 52L277.4 39.5C277.46 34.29 275.42 29.28 271.72 25.61C268.03 21.93 263.01 19.91 257.8 20L169 20C163.79 19.91 158.77 21.93 155.07 25.61C151.38 29.28 149.33 34.29 149.4 39.5L149.4 52ZM78.2 72C68.26 72 60.2 80.06 60.2 90C60.2 99.94 68.26 108 78.2 108L348.6 108C358.54 108 366.6 99.94 366.6 90C366.6 80.06 358.54 72 348.6 72L78.2 72Z" />
	<path id="Layer" class="shp0" d="M213.4 154.7C207.88 154.7 203.4 159.18 203.4 164.7L203.4 353.7C203.4 359.22 207.88 363.7 213.4 363.7C218.92 363.7 223.4 359.22 223.4 353.7L223.4 164.7C223.4 159.18 218.92 154.7 213.4 154.7Z" />
	<path id="Color Fill 1" class="shp1" d="M213.4 154.7C207.88 154.7 203.4 159.18 203.4 164.7L203.4 353.7C203.4 359.22 207.88 363.7 213.4 363.7C218.92 363.7 223.4 359.22 223.4 353.7L223.4 164.7C223.4 159.18 218.92 154.7 213.4 154.7Z" />
</svg>