<svg height="512" viewBox="0 0 512 512" width="512" xmlns="http://www.w3.org/2000/svg"><g><g><path d="m344 352a95.894 95.894 0 0 1 -88-57.5 96.024 96.024 0 1 1 -88-134.5h176a96 96 0 0 1 0 192z" fill="#787680"/><path d="m416 256a72 72 0 0 1 -143.56 8h-32.88a72 72 0 1 1 -71.56-80h176a72.006 72.006 0 0 1 72 72z" fill="#83d8f4"/><path d="m416 319.42v120.58a56.062 56.062 0 0 1 -56 56h-64a56.062 56.062 0 0 1 -56-56v-8h32v8a24.032 24.032 0 0 0 24 24h64a24.032 24.032 0 0 0 24-24v-96.75" fill="#3e3d42"/><path d="m384 16h32v48h-32z" fill="#ff9811"/><path d="m416 64v128.58l-32-23.83v-104.75z" fill="#3e3d42"/></g><g><path d="m424 189.62v-173.62a8 8 0 0 0 -8-8h-32a8 8 0 0 0 -8 8v141.04a103.6 103.6 0 0 0 -32-5.04h-176a104 104 0 1 0 88 159.56 104.144 104.144 0 0 0 120 43.4v85.04a16.021 16.021 0 0 1 -16 16h-64a16.021 16.021 0 0 1 -16-16v-8.02a39.967 39.967 0 0 0 16-31.98 8 8 0 0 0 -16 0 24 24 0 0 1 -48 0 8 8 0 0 0 -16 0 39.967 39.967 0 0 0 16 31.98v8.02a64.072 64.072 0 0 0 64 64h64a64.072 64.072 0 0 0 64-64v-117.62a103.8 103.8 0 0 0 0-132.76zm-32-165.62h16v32h-16zm0 48h16v102.08a104.25 104.25 0 0 0 -16-10.32zm16 368a48.051 48.051 0 0 1 -48 48h-64a48.051 48.051 0 0 1 -48-48h16a32.036 32.036 0 0 0 32 32h64a32.036 32.036 0 0 0 32-32v-91.76a104.25 104.25 0 0 0 16-10.32zm1.9-125.74a.6.6 0 0 0 -.08.08 88.526 88.526 0 0 1 -28.87 21.52c-.18.07-.34.15-.51.23a88.047 88.047 0 0 1 -117.11-44.78 7.99 7.99 0 0 0 -14.66 0 88.026 88.026 0 1 1 -80.67-123.31h176a87.957 87.957 0 0 1 65.9 146.26z"/><path d="m424 256a80.091 80.091 0 0 0 -80-80h-176a80 80 0 1 0 78.4 96h19.2a80.01 80.01 0 0 0 158.4-16zm-143.608 7.121a8 8 0 0 0 -7.952-7.121h-32.88a8 8 0 0 0 -7.952 7.121 64 64 0 1 1 -63.608-71.121h176a64 64 0 1 1 -63.608 71.121z"/></g></g></svg>